<?xml version="1.0" encoding="UTF-8"?>
<!DOCTYPE svg PUBLIC "-//W3C//DTD SVG 1.1//EN" "http://www.w3.org/Graphics/SVG/1.1/DTD/svg11.dtd">
<!-- Creator: CorelDRAW -->
<svg xmlns="http://www.w3.org/2000/svg" xml:space="preserve" width="100%" height="100%" style="shape-rendering:geometricPrecision; text-rendering:geometricPrecision; image-rendering:optimizeQuality; fill-rule:evenodd; clip-rule:evenodd"
viewBox="0 0 0.75 0.75"
 xmlns:xlink="http://www.w3.org/1999/xlink">
 <defs>
  <style type="text/css">
   <![CDATA[
    .fil1 {fill:none}
    .fil0 {fill:#444444;fill-rule:nonzero}
   ]]>
  </style>
 </defs>
 <g id="Layer_x0020_1">
     <animateTransform 
        attributeType="xml"
	    attributeName="transform" type="rotate"
	    from="0,0.375,0.375" to="360,0.375,0.375"
	    begin="0" dur="1s" 
            repeatCount="indefinite"
      />
  <metadata id="CorelCorpID_0Corel-Layer"/>
  <g id="_217589288">
   <path id="_217017488" class="fil0" d="M0.62439 0.36207c-0.00678,-0.13202 -0.11566,-0.23706 -0.24939,-0.23706 -0.11834,0 -0.21734,0.08239 -0.24316,0.19293 -0.00433,0.01831 -0.00684,0.03735 -0.00684,0.05707 0,0.00934 0.00061,0.01855 0.00165,0.02765 0.0138,0.12506 0.11969,0.22234 0.24835,0.22234 0.10682,0 0.19769,-0.06713 0.23352,-0.16131 0.0105,-0.02759 0.01648,-0.05744 0.01648,-0.08868 0,-0.00439 -0.00043,-0.00861 -0.00061,-0.01294zm-0.35877 0.04418l0 0c-0.02587,0 -0.04686,-0.02099 -0.04686,-0.04687 0,-0.02588 0.02099,-0.04687 0.04686,-0.04687 0.02589,0 0.04688,0.02099 0.04688,0.04687 0,0.02588 -0.02099,0.04687 -0.04688,0.04687zm0.3235 0.01362l0 0c-0.0287,0.04016 -0.06568,0.05951 -0.10139,0.05951 -0.04675,0 -0.0971,-0.03546 -0.0971,-0.11334 0,-0.09497 -0.06458,-0.14466 -0.12835,-0.14466 -0.01765,0 -0.03553,0.00378 -0.05292,0.01117 0.04016,-0.04663 0.09948,-0.07629 0.16564,-0.07629 0.12061,0 0.21875,0.09815 0.21875,0.21875 0,0.01538 -0.00165,0.03039 -0.00463,0.04486z"/>
   <path id="_217017416" class="fil0" d="M0.48438 0.34376c-0.02588,0 -0.04688,0.02099 -0.04688,0.04688 0,0.02587 0.021,0.04686 0.04688,0.04686 0.02587,0 0.04687,-0.02099 0.04687,-0.04686 0,-0.02589 -0.021,-0.04688 -0.04687,-0.04688z"/>
  </g>
  <rect class="fil1" width="0.75" height="0.75" rx="0.4" ry="0.4"/>
 </g>
</svg>
